# xmcd CD database file
#
# Track frame offsets:
#	150
#	12209
#	23066
#	33959
#	45037
#	57737
#	68384
#	79951
#	92231
#	103437
#
# Disc length: 1541 seconds
#
# Revision: 0
# Processed by: cddbd v1.5.2PL0 Copyright (c) Steve Scherf et al.
# Submitted via: CDex 1.70beta2
#
DISCID=7606030a
DTITLE=Roy Acuff - Roy Acuff Sings the Songs of Hank Williams
DYEAR=2005
DGENRE=Country
TTITLE0=Your Cheatin' Heart
TTITLE1=Jambalaya (On The Bayou)
TTITLE2=Hey Good Lookin'
TTITLE3=Take These Chains From My Heart
TTITLE4=Cold Cold Hear
TTITLE5=I Can't Help It (If I'm Still In Love With You)
TTITLE6=Lonsome Whistle
TTITLE7=I'm So Lonsome I Could Cry
TTITLE8=There'll Be No Teardrops Tonight
TTITLE9=You Win Again
EXTD=YEAR: 2005
EXTT0=
EXTT1=
EXTT2=
EXTT3=
EXTT4=
EXTT5=
EXTT6=
EXTT7=
EXTT8=
EXTT9=
PLAYORDER=
